<?xml version="1.0" encoding="UTF-8"?>
<svg id="Layer_1" data-name="Layer 1" xmlns="http://www.w3.org/2000/svg" version="1.1" viewBox="0 0 133 133">
  <defs>
    <style>
      .cls-1 {
        fill: #fff;
        stroke-width: 0px;
      }
    </style>
  </defs>
  <path id="circle-play-solid" class="cls-1" d="M0,66.5C0,29.8,29.8,0,66.5,0s66.5,29.8,66.5,66.5-29.8,66.5-66.5,66.5h0C29.8,133,0,103.2,0,66.5ZM48.9,38.2c-2,1.1-3.2,3.2-3.2,5.4v45.7c0,3.4,2.8,6.2,6.3,6.2,1.1,0,2.3-.3,3.3-.9l37.4-22.9c2.9-1.8,3.9-5.6,2.1-8.6-.5-.8-1.2-1.6-2.1-2.1l-37.4-22.9c-1.9-1.2-4.3-1.2-6.3-.1h0Z"/>
</svg>