<svg xmlns="http://www.w3.org/2000/svg" width="368.028" height="46.434" viewBox="0 0 368.028 46.434">
  <path id="Path_36" data-name="Path 36" d="M650.282,255.143a1.353,1.353,0,0,1-.812,2.58c-4.734-1.264-9.508-2.391-14.3-3.412a425.91,425.91,0,0,0-49.625-7.169c-8.34-.8-16.729-1.261-25.093-1.816-2.09-.155-4.186-.24-6.281-.319l-6.284-.256c-4.188-.158-8.37-.39-12.563-.416l-12.564-.215c-4.187-.059-8.377.03-12.562.037-8.37-.037-16.739.351-25.1.562-4.179.17-8.355.427-12.529.636l-6.26.33c-2.085.123-4.169.307-6.252.457l-12.495.948L435.1,248.318l-6.228.618-6.213.762-12.415,1.534-12.372,1.812c-2.059.312-4.124.579-6.178.928l-6.158,1.051c-16.439,2.663-32.721,6.115-48.885,9.875l-12.083,2.98c-4.027.984-8,2.158-12,3.226l-5.991,1.639c-2,.538-3.968,1.179-5.952,1.763l-1.219.368a10.925,10.925,0,0,1-13.671-7.5l-2.157-7.67a10.925,10.925,0,0,1,8.157-13.625l1.384-.306c2.113-.453,4.212-.963,6.335-1.368l6.359-1.235c4.243-.8,8.461-1.7,12.716-2.408l12.749-2.143c17.024-2.633,34.069-4.915,51.172-6.379l6.4-.6c2.135-.2,4.278-.314,6.415-.474l12.822-.9,12.831-.611,6.409-.3,6.416-.152,12.82-.29,12.818,0c2.135.007,4.268-.019,6.4.016l6.4.146c4.267.108,8.53.169,12.792.318,8.524.426,17.038.678,25.535,1.357,4.248.314,8.5.546,12.737.927l12.71,1.181c4.237.348,8.458.9,12.681,1.383l6.331.74c2.11.241,4.219.487,6.321.8,8.414,1.2,16.824,2.308,25.192,3.752a430.751,430.751,0,0,1,49.6,11.054q7.155,2.1,14.2,4.554" transform="translate(-283.161 -228.908)" fill="#D20026"/>
</svg>
